<mxfile host="app.diagrams.net" modified="2024-02-12T08:58:05.855Z" agent="Mozilla/5.0 (X11; Ubuntu; Linux x86_64; rv:122.0) Gecko/20100101 Firefox/122.0" etag="2T3cAZJ-lnDrbzOzk45a" version="23.1.1" type="device">
  <diagram name="Page-1" id="Mk6yh0I7Yg1ter9-D5bk">
    <mxGraphModel dx="546" dy="288" grid="1" gridSize="10" guides="1" tooltips="1" connect="1" arrows="1" fold="1" page="1" pageScale="1" pageWidth="827" pageHeight="1169" background="#ffffff" math="0" shadow="0">
      <root>
        <mxCell id="0" />
        <mxCell id="1" parent="0" />
        <mxCell id="clNDpagBkAwe7nPtnSpp-1" value="" style="ellipse;whiteSpace=wrap;html=1;aspect=fixed;fillColor=#d5e8d4;strokeColor=#82b366;" parent="1" vertex="1">
          <mxGeometry x="80" y="320" width="10" height="10" as="geometry" />
        </mxCell>
        <mxCell id="clNDpagBkAwe7nPtnSpp-3" value="" style="endArrow=classic;html=1;rounded=0;exitX=1;exitY=0.5;exitDx=0;exitDy=0;entryX=0;entryY=0.5;entryDx=0;entryDy=0;" parent="1" source="clNDpagBkAwe7nPtnSpp-1" target="clNDpagBkAwe7nPtnSpp-6" edge="1">
          <mxGeometry width="50" height="50" relative="1" as="geometry">
            <mxPoint x="390" y="680" as="sourcePoint" />
            <mxPoint x="120" y="325" as="targetPoint" />
          </mxGeometry>
        </mxCell>
        <mxCell id="clNDpagBkAwe7nPtnSpp-6" value="" style="ellipse;whiteSpace=wrap;html=1;aspect=fixed;fillColor=#d5e8d4;strokeColor=#82b366;" parent="1" vertex="1">
          <mxGeometry x="200" y="320" width="10" height="10" as="geometry" />
        </mxCell>
        <mxCell id="clNDpagBkAwe7nPtnSpp-16" value="" style="endArrow=classic;html=1;rounded=0;exitX=1;exitY=0.5;exitDx=0;exitDy=0;entryX=0;entryY=0.5;entryDx=0;entryDy=0;" parent="1" edge="1">
          <mxGeometry width="50" height="50" relative="1" as="geometry">
            <mxPoint x="50" y="324.86" as="sourcePoint" />
            <mxPoint x="80" y="324.86" as="targetPoint" />
          </mxGeometry>
        </mxCell>
        <mxCell id="clNDpagBkAwe7nPtnSpp-17" value="" style="ellipse;whiteSpace=wrap;html=1;aspect=fixed;fillColor=#f8cecc;strokeColor=#b85450;" parent="1" vertex="1">
          <mxGeometry x="200" y="400" width="10" height="10" as="geometry" />
        </mxCell>
        <mxCell id="clNDpagBkAwe7nPtnSpp-21" value="v1.0" style="rounded=0;whiteSpace=wrap;html=1;" parent="1" vertex="1">
          <mxGeometry x="190" y="420" width="30" height="20" as="geometry" />
        </mxCell>
        <mxCell id="clNDpagBkAwe7nPtnSpp-22" value="" style="endArrow=none;html=1;rounded=0;exitX=0.5;exitY=1;exitDx=0;exitDy=0;opacity=40;" parent="1" source="clNDpagBkAwe7nPtnSpp-17" edge="1">
          <mxGeometry width="50" height="50" relative="1" as="geometry">
            <mxPoint x="205" y="450" as="sourcePoint" />
            <mxPoint x="205" y="420" as="targetPoint" />
          </mxGeometry>
        </mxCell>
        <mxCell id="clNDpagBkAwe7nPtnSpp-31" value="&lt;div&gt;devel&lt;/div&gt;" style="text;html=1;strokeColor=none;fillColor=none;align=left;verticalAlign=middle;whiteSpace=wrap;rounded=0;" parent="1" vertex="1">
          <mxGeometry x="640.54" y="310" width="60" height="30" as="geometry" />
        </mxCell>
        <mxCell id="clNDpagBkAwe7nPtnSpp-32" value="release/v1.0" style="text;html=1;strokeColor=none;fillColor=none;align=left;verticalAlign=middle;whiteSpace=wrap;rounded=0;" parent="1" vertex="1">
          <mxGeometry x="640.54" y="390" width="70" height="30" as="geometry" />
        </mxCell>
        <mxCell id="clNDpagBkAwe7nPtnSpp-35" value="" style="endArrow=classic;html=1;rounded=0;exitX=1;exitY=0.5;exitDx=0;exitDy=0;opacity=30;endFill=1;" parent="1" source="clNDpagBkAwe7nPtnSpp-51" edge="1">
          <mxGeometry width="50" height="50" relative="1" as="geometry">
            <mxPoint x="289" y="404.83000000000004" as="sourcePoint" />
            <mxPoint x="600" y="405" as="targetPoint" />
          </mxGeometry>
        </mxCell>
        <mxCell id="clNDpagBkAwe7nPtnSpp-41" value="" style="endArrow=classic;html=1;rounded=0;entryX=0;entryY=0;entryDx=0;entryDy=0;exitX=1;exitY=1;exitDx=0;exitDy=0;" parent="1" source="clNDpagBkAwe7nPtnSpp-1" target="BKJqnO9p7tOJYiJ99nwM-1" edge="1">
          <mxGeometry width="50" height="50" relative="1" as="geometry">
            <mxPoint x="190" y="440" as="sourcePoint" />
            <mxPoint x="240" y="390" as="targetPoint" />
          </mxGeometry>
        </mxCell>
        <mxCell id="clNDpagBkAwe7nPtnSpp-43" value="" style="endArrow=classic;html=1;rounded=0;exitX=1;exitY=0.5;exitDx=0;exitDy=0;entryX=0;entryY=0.5;entryDx=0;entryDy=0;" parent="1" source="clNDpagBkAwe7nPtnSpp-57" target="clNDpagBkAwe7nPtnSpp-44" edge="1">
          <mxGeometry width="50" height="50" relative="1" as="geometry">
            <mxPoint x="210" y="325" as="sourcePoint" />
            <mxPoint x="240" y="325" as="targetPoint" />
          </mxGeometry>
        </mxCell>
        <mxCell id="clNDpagBkAwe7nPtnSpp-79" value="" style="edgeStyle=orthogonalEdgeStyle;rounded=0;orthogonalLoop=1;jettySize=auto;html=1;" parent="1" source="clNDpagBkAwe7nPtnSpp-44" target="clNDpagBkAwe7nPtnSpp-77" edge="1">
          <mxGeometry relative="1" as="geometry" />
        </mxCell>
        <mxCell id="clNDpagBkAwe7nPtnSpp-44" value="" style="ellipse;whiteSpace=wrap;html=1;aspect=fixed;fillColor=#d5e8d4;strokeColor=#82b366;" parent="1" vertex="1">
          <mxGeometry x="359" y="320" width="10" height="10" as="geometry" />
        </mxCell>
        <mxCell id="clNDpagBkAwe7nPtnSpp-45" value="" style="endArrow=classic;html=1;rounded=0;entryX=0;entryY=0;entryDx=0;entryDy=0;exitX=1;exitY=1;exitDx=0;exitDy=0;dashed=1;" parent="1" source="clNDpagBkAwe7nPtnSpp-57" target="BKJqnO9p7tOJYiJ99nwM-4" edge="1">
          <mxGeometry width="50" height="50" relative="1" as="geometry">
            <mxPoint x="209" y="340" as="sourcePoint" />
            <mxPoint x="380" y="351" as="targetPoint" />
          </mxGeometry>
        </mxCell>
        <mxCell id="clNDpagBkAwe7nPtnSpp-52" value="" style="endArrow=classic;html=1;rounded=0;exitX=1;exitY=0.5;exitDx=0;exitDy=0;endFill=1;" parent="1" source="clNDpagBkAwe7nPtnSpp-17" target="clNDpagBkAwe7nPtnSpp-51" edge="1">
          <mxGeometry width="50" height="50" relative="1" as="geometry">
            <mxPoint x="210" y="405" as="sourcePoint" />
            <mxPoint x="320" y="405" as="targetPoint" />
          </mxGeometry>
        </mxCell>
        <mxCell id="clNDpagBkAwe7nPtnSpp-51" value="" style="ellipse;whiteSpace=wrap;html=1;aspect=fixed;fillColor=#f8cecc;strokeColor=#b85450;" parent="1" vertex="1">
          <mxGeometry x="360.46" y="400.73" width="10" height="10" as="geometry" />
        </mxCell>
        <mxCell id="clNDpagBkAwe7nPtnSpp-53" value="" style="endArrow=classic;html=1;rounded=0;entryX=0;entryY=0;entryDx=0;entryDy=0;exitX=1;exitY=1;exitDx=0;exitDy=0;" parent="1" source="BKJqnO9p7tOJYiJ99nwM-6" target="clNDpagBkAwe7nPtnSpp-51" edge="1">
          <mxGeometry width="50" height="50" relative="1" as="geometry">
            <mxPoint x="328.99553390593275" y="329.2655339059328" as="sourcePoint" />
            <mxPoint x="320.46" y="360.73" as="targetPoint" />
          </mxGeometry>
        </mxCell>
        <mxCell id="clNDpagBkAwe7nPtnSpp-54" value="v1.0.1" style="rounded=0;whiteSpace=wrap;html=1;" parent="1" vertex="1">
          <mxGeometry x="345.46" y="420.73" width="40" height="20" as="geometry" />
        </mxCell>
        <mxCell id="clNDpagBkAwe7nPtnSpp-55" value="" style="endArrow=none;html=1;rounded=0;exitX=0.5;exitY=1;exitDx=0;exitDy=0;opacity=40;" parent="1" edge="1">
          <mxGeometry width="50" height="50" relative="1" as="geometry">
            <mxPoint x="365.46" y="410.73" as="sourcePoint" />
            <mxPoint x="365.46" y="420.73" as="targetPoint" />
          </mxGeometry>
        </mxCell>
        <mxCell id="clNDpagBkAwe7nPtnSpp-56" value="&lt;div&gt;release-prepare/&lt;/div&gt;&lt;div&gt;v$Major.$Minor.$Patch&lt;/div&gt;" style="text;html=1;strokeColor=none;fillColor=none;align=left;verticalAlign=middle;whiteSpace=wrap;rounded=0;" parent="1" vertex="1">
          <mxGeometry x="640.54" y="350" width="139.46" height="30" as="geometry" />
        </mxCell>
        <mxCell id="clNDpagBkAwe7nPtnSpp-58" value="" style="endArrow=classic;html=1;rounded=0;exitX=1;exitY=0.5;exitDx=0;exitDy=0;entryX=0;entryY=0.5;entryDx=0;entryDy=0;" parent="1" source="clNDpagBkAwe7nPtnSpp-6" target="clNDpagBkAwe7nPtnSpp-57" edge="1">
          <mxGeometry width="50" height="50" relative="1" as="geometry">
            <mxPoint x="210" y="325" as="sourcePoint" />
            <mxPoint x="359" y="325" as="targetPoint" />
          </mxGeometry>
        </mxCell>
        <mxCell id="clNDpagBkAwe7nPtnSpp-57" value="" style="ellipse;whiteSpace=wrap;html=1;aspect=fixed;fillColor=#d5e8d4;strokeColor=#82b366;" parent="1" vertex="1">
          <mxGeometry x="240" y="320" width="10" height="10" as="geometry" />
        </mxCell>
        <mxCell id="clNDpagBkAwe7nPtnSpp-60" value="" style="ellipse;whiteSpace=wrap;html=1;aspect=fixed;fillColor=#d5e8d4;strokeColor=#82b366;" parent="1" vertex="1">
          <mxGeometry x="560" y="320" width="10" height="10" as="geometry" />
        </mxCell>
        <mxCell id="clNDpagBkAwe7nPtnSpp-61" value="" style="endArrow=classic;html=1;rounded=0;exitX=1;exitY=0.5;exitDx=0;exitDy=0;entryX=0;entryY=0.5;entryDx=0;entryDy=0;" parent="1" target="clNDpagBkAwe7nPtnSpp-60" edge="1">
          <mxGeometry width="50" height="50" relative="1" as="geometry">
            <mxPoint x="530" y="325" as="sourcePoint" />
            <mxPoint x="880" y="631" as="targetPoint" />
          </mxGeometry>
        </mxCell>
        <mxCell id="clNDpagBkAwe7nPtnSpp-62" value="" style="endArrow=classic;html=1;rounded=0;exitX=1;exitY=0.5;exitDx=0;exitDy=0;opacity=30;endFill=1;" parent="1" source="clNDpagBkAwe7nPtnSpp-71" edge="1">
          <mxGeometry width="50" height="50" relative="1" as="geometry">
            <mxPoint x="450" y="444.83000000000004" as="sourcePoint" />
            <mxPoint x="600.54" y="445" as="targetPoint" />
          </mxGeometry>
        </mxCell>
        <mxCell id="clNDpagBkAwe7nPtnSpp-63" value="" style="endArrow=classic;html=1;rounded=0;exitX=1;exitY=0.5;exitDx=0;exitDy=0;opacity=30;" parent="1" source="clNDpagBkAwe7nPtnSpp-60" edge="1">
          <mxGeometry width="50" height="50" relative="1" as="geometry">
            <mxPoint x="530" y="324.83000000000004" as="sourcePoint" />
            <mxPoint x="600" y="324.83000000000004" as="targetPoint" />
          </mxGeometry>
        </mxCell>
        <mxCell id="clNDpagBkAwe7nPtnSpp-65" value="" style="ellipse;whiteSpace=wrap;html=1;aspect=fixed;fillColor=#d5e8d4;strokeColor=#82b366;" parent="1" vertex="1">
          <mxGeometry x="520" y="320" width="10" height="10" as="geometry" />
        </mxCell>
        <mxCell id="clNDpagBkAwe7nPtnSpp-71" value="" style="ellipse;whiteSpace=wrap;html=1;aspect=fixed;fillColor=#f8cecc;strokeColor=#b85450;" parent="1" vertex="1">
          <mxGeometry x="520" y="440.73" width="10" height="10" as="geometry" />
        </mxCell>
        <mxCell id="clNDpagBkAwe7nPtnSpp-72" value="" style="endArrow=classic;html=1;rounded=0;entryX=0;entryY=0;entryDx=0;entryDy=0;exitX=1;exitY=1;exitDx=0;exitDy=0;" parent="1" source="BKJqnO9p7tOJYiJ99nwM-9" target="clNDpagBkAwe7nPtnSpp-71" edge="1">
          <mxGeometry width="50" height="50" relative="1" as="geometry">
            <mxPoint x="388.54" y="410" as="sourcePoint" />
            <mxPoint x="438.54" y="360" as="targetPoint" />
          </mxGeometry>
        </mxCell>
        <mxCell id="clNDpagBkAwe7nPtnSpp-73" value="&lt;div&gt;v1.1&lt;/div&gt;" style="rounded=0;whiteSpace=wrap;html=1;" parent="1" vertex="1">
          <mxGeometry x="507.23" y="460.73" width="35.54" height="20" as="geometry" />
        </mxCell>
        <mxCell id="clNDpagBkAwe7nPtnSpp-74" value="" style="endArrow=none;html=1;rounded=0;exitX=0.5;exitY=1;exitDx=0;exitDy=0;opacity=40;" parent="1" source="clNDpagBkAwe7nPtnSpp-71" edge="1">
          <mxGeometry width="50" height="50" relative="1" as="geometry">
            <mxPoint x="525" y="450.73" as="sourcePoint" />
            <mxPoint x="525" y="460.73" as="targetPoint" />
          </mxGeometry>
        </mxCell>
        <mxCell id="clNDpagBkAwe7nPtnSpp-76" value="release/v1.1" style="text;html=1;strokeColor=none;fillColor=none;align=left;verticalAlign=middle;whiteSpace=wrap;rounded=0;" parent="1" vertex="1">
          <mxGeometry x="640.54" y="430" width="70" height="30" as="geometry" />
        </mxCell>
        <mxCell id="clNDpagBkAwe7nPtnSpp-80" value="" style="edgeStyle=orthogonalEdgeStyle;rounded=0;orthogonalLoop=1;jettySize=auto;html=1;entryX=0;entryY=0.5;entryDx=0;entryDy=0;" parent="1" source="clNDpagBkAwe7nPtnSpp-77" target="clNDpagBkAwe7nPtnSpp-65" edge="1">
          <mxGeometry relative="1" as="geometry" />
        </mxCell>
        <mxCell id="clNDpagBkAwe7nPtnSpp-77" value="" style="ellipse;whiteSpace=wrap;html=1;aspect=fixed;fillColor=#d5e8d4;strokeColor=#82b366;" parent="1" vertex="1">
          <mxGeometry x="400" y="320" width="10" height="10" as="geometry" />
        </mxCell>
        <mxCell id="BKJqnO9p7tOJYiJ99nwM-1" value="" style="ellipse;whiteSpace=wrap;html=1;aspect=fixed;fillColor=#fff2cc;strokeColor=#d6b656;" parent="1" vertex="1">
          <mxGeometry x="120" y="360" width="10" height="10" as="geometry" />
        </mxCell>
        <mxCell id="BKJqnO9p7tOJYiJ99nwM-2" value="" style="endArrow=classic;html=1;rounded=0;entryX=0;entryY=0.5;entryDx=0;entryDy=0;exitX=1;exitY=0.5;exitDx=0;exitDy=0;" parent="1" source="BKJqnO9p7tOJYiJ99nwM-1" target="BKJqnO9p7tOJYiJ99nwM-3" edge="1">
          <mxGeometry width="50" height="50" relative="1" as="geometry">
            <mxPoint x="190" y="440" as="sourcePoint" />
            <mxPoint x="240" y="390" as="targetPoint" />
          </mxGeometry>
        </mxCell>
        <mxCell id="BKJqnO9p7tOJYiJ99nwM-3" value="" style="ellipse;whiteSpace=wrap;html=1;aspect=fixed;fillColor=#fff2cc;strokeColor=#d6b656;" parent="1" vertex="1">
          <mxGeometry x="160" y="360" width="10" height="10" as="geometry" />
        </mxCell>
        <mxCell id="BKJqnO9p7tOJYiJ99nwM-4" value="" style="ellipse;whiteSpace=wrap;html=1;aspect=fixed;fillColor=#fff2cc;strokeColor=#d6b656;" parent="1" vertex="1">
          <mxGeometry x="279" y="360" width="10" height="10" as="geometry" />
        </mxCell>
        <mxCell id="BKJqnO9p7tOJYiJ99nwM-5" value="" style="endArrow=classic;html=1;rounded=0;entryX=0;entryY=0.5;entryDx=0;entryDy=0;exitX=1;exitY=0.5;exitDx=0;exitDy=0;" parent="1" source="BKJqnO9p7tOJYiJ99nwM-4" target="BKJqnO9p7tOJYiJ99nwM-6" edge="1">
          <mxGeometry width="50" height="50" relative="1" as="geometry">
            <mxPoint x="349" y="440" as="sourcePoint" />
            <mxPoint x="399" y="390" as="targetPoint" />
          </mxGeometry>
        </mxCell>
        <mxCell id="BKJqnO9p7tOJYiJ99nwM-6" value="" style="ellipse;whiteSpace=wrap;html=1;aspect=fixed;fillColor=#fff2cc;strokeColor=#d6b656;" parent="1" vertex="1">
          <mxGeometry x="319" y="360" width="10" height="10" as="geometry" />
        </mxCell>
        <mxCell id="BKJqnO9p7tOJYiJ99nwM-7" value="" style="ellipse;whiteSpace=wrap;html=1;aspect=fixed;fillColor=#fff2cc;strokeColor=#d6b656;" parent="1" vertex="1">
          <mxGeometry x="440" y="360" width="10" height="10" as="geometry" />
        </mxCell>
        <mxCell id="BKJqnO9p7tOJYiJ99nwM-8" value="" style="endArrow=classic;html=1;rounded=0;entryX=0;entryY=0.5;entryDx=0;entryDy=0;exitX=1;exitY=0.5;exitDx=0;exitDy=0;" parent="1" source="BKJqnO9p7tOJYiJ99nwM-7" target="BKJqnO9p7tOJYiJ99nwM-9" edge="1">
          <mxGeometry width="50" height="50" relative="1" as="geometry">
            <mxPoint x="510" y="440" as="sourcePoint" />
            <mxPoint x="560" y="390" as="targetPoint" />
          </mxGeometry>
        </mxCell>
        <mxCell id="BKJqnO9p7tOJYiJ99nwM-9" value="" style="ellipse;whiteSpace=wrap;html=1;aspect=fixed;fillColor=#fff2cc;strokeColor=#d6b656;" parent="1" vertex="1">
          <mxGeometry x="480" y="360" width="10" height="10" as="geometry" />
        </mxCell>
        <mxCell id="BKJqnO9p7tOJYiJ99nwM-11" value="" style="endArrow=classic;html=1;rounded=0;entryX=0;entryY=0;entryDx=0;entryDy=0;exitX=1;exitY=1;exitDx=0;exitDy=0;" parent="1" source="BKJqnO9p7tOJYiJ99nwM-3" target="clNDpagBkAwe7nPtnSpp-17" edge="1">
          <mxGeometry width="50" height="50" relative="1" as="geometry">
            <mxPoint x="210" y="490" as="sourcePoint" />
            <mxPoint x="260" y="440" as="targetPoint" />
          </mxGeometry>
        </mxCell>
        <mxCell id="BKJqnO9p7tOJYiJ99nwM-13" value="" style="endArrow=classic;html=1;rounded=0;entryX=0;entryY=1;entryDx=0;entryDy=0;exitX=1;exitY=0;exitDx=0;exitDy=0;" parent="1" source="clNDpagBkAwe7nPtnSpp-17" target="BKJqnO9p7tOJYiJ99nwM-4" edge="1">
          <mxGeometry width="50" height="50" relative="1" as="geometry">
            <mxPoint x="210" y="490" as="sourcePoint" />
            <mxPoint x="260" y="440" as="targetPoint" />
          </mxGeometry>
        </mxCell>
        <mxCell id="BKJqnO9p7tOJYiJ99nwM-15" value="" style="endArrow=classic;html=1;rounded=0;entryX=0;entryY=0;entryDx=0;entryDy=0;exitX=1;exitY=1;exitDx=0;exitDy=0;" parent="1" source="clNDpagBkAwe7nPtnSpp-77" target="BKJqnO9p7tOJYiJ99nwM-7" edge="1">
          <mxGeometry width="50" height="50" relative="1" as="geometry">
            <mxPoint x="360" y="530" as="sourcePoint" />
            <mxPoint x="410" y="480" as="targetPoint" />
          </mxGeometry>
        </mxCell>
        <mxCell id="_rf0kHMTskf1nQpIu7O9-1" value="" style="endArrow=classic;html=1;rounded=0;entryX=0;entryY=1;entryDx=0;entryDy=0;exitX=1;exitY=0;exitDx=0;exitDy=0;" parent="1" source="BKJqnO9p7tOJYiJ99nwM-3" target="clNDpagBkAwe7nPtnSpp-6" edge="1">
          <mxGeometry width="50" height="50" relative="1" as="geometry">
            <mxPoint x="179" y="379" as="sourcePoint" />
            <mxPoint x="211" y="411" as="targetPoint" />
          </mxGeometry>
        </mxCell>
        <mxCell id="_rf0kHMTskf1nQpIu7O9-2" value="" style="endArrow=classic;html=1;rounded=0;entryX=0;entryY=1;entryDx=0;entryDy=0;exitX=1;exitY=0;exitDx=0;exitDy=0;" parent="1" source="BKJqnO9p7tOJYiJ99nwM-6" target="clNDpagBkAwe7nPtnSpp-44" edge="1">
          <mxGeometry width="50" height="50" relative="1" as="geometry">
            <mxPoint x="179" y="371" as="sourcePoint" />
            <mxPoint x="211" y="339" as="targetPoint" />
          </mxGeometry>
        </mxCell>
        <mxCell id="_rf0kHMTskf1nQpIu7O9-3" value="" style="endArrow=classic;html=1;rounded=0;entryX=0;entryY=1;entryDx=0;entryDy=0;exitX=1;exitY=0;exitDx=0;exitDy=0;" parent="1" source="BKJqnO9p7tOJYiJ99nwM-9" target="clNDpagBkAwe7nPtnSpp-65" edge="1">
          <mxGeometry width="50" height="50" relative="1" as="geometry">
            <mxPoint x="189" y="381" as="sourcePoint" />
            <mxPoint x="221" y="349" as="targetPoint" />
          </mxGeometry>
        </mxCell>
      </root>
    </mxGraphModel>
  </diagram>
</mxfile>
